<svg width="41" height="36" viewBox="0 0 41 36" fill="none" xmlns="http://www.w3.org/2000/svg">
<path d="M32.0539 2.99443C31.1501 1.42726 29.4815 0.462036 27.6759 0.462036H13.0227C11.215 0.462036 9.54851 1.42726 8.64467 2.99443L1.31704 15.7007C0.4132 17.2679 0.4132 19.1962 1.31704 20.7613L8.64467 33.4676C9.54851 35.0348 11.2171 36 13.0227 36H27.6759C29.4836 36 31.1501 35.0348 32.0539 33.4676L39.3815 20.7613C40.2854 19.1962 40.2854 17.2658 39.3815 15.7007L32.0539 2.99443Z" fill="#F2F2F2"/>
<path d="M28.6485 7.42779C28.0079 6.31984 26.8253 5.63745 25.5456 5.63745H15.1605C13.8793 5.63745 12.6982 6.31984 12.0576 7.42779L6.86428 16.4108C6.22371 17.5188 6.22371 18.8821 6.86428 19.9885L12.0576 28.9716C12.6982 30.0795 13.8808 30.7619 15.1605 30.7619H25.5456C26.8268 30.7619 28.0079 30.0795 28.6485 28.9716L33.8418 19.9885C34.4824 18.8821 34.4824 17.5173 33.8418 16.4108L28.6485 7.42779Z" fill="#003E78"/>
<path d="M22.7608 24.2426C22.4009 23.611 22.047 22.9764 21.6857 22.3448C21.1018 21.322 20.5076 20.3051 19.9357 19.2748C19.7475 18.9373 19.5011 18.791 19.1204 18.8044C18.541 18.8238 17.9587 18.8089 17.3793 18.8089C14.7364 18.8089 12.0919 18.8074 9.44897 18.8119C9.5102 19.0941 9.61323 19.3704 9.76254 19.6287L13.836 26.6736C14.3377 27.5426 15.2665 28.0772 16.2699 28.0772H24.4152C24.5885 28.0772 24.7587 28.0607 24.9244 28.0294C24.5765 27.4007 24.2181 26.7781 23.8613 26.1554C23.4969 25.5178 23.1266 24.8817 22.7608 24.2426Z" fill="#F2F2F2"/>
<path d="M26.8506 26.6751L30.924 19.6302C31.4258 18.7612 31.4258 17.692 30.924 16.823L26.8506 9.77811C26.6475 9.42572 26.3728 9.13007 26.0518 8.90012C26.0249 8.94491 25.9995 8.9912 25.9726 9.036C25.7725 9.38242 25.5874 9.7378 25.3888 10.0842C25.0633 10.6561 24.7318 11.225 24.4048 11.7954C24.1748 12.1971 23.9523 12.6017 23.7239 13.0019C23.2983 13.7485 22.8728 14.4951 22.4457 15.2402C22.1456 15.7658 21.8469 16.2914 21.5453 16.817C21.3527 17.153 21.1511 17.4845 20.9645 17.8234C20.854 18.0235 20.8555 18.24 20.9689 18.4386C21.4811 19.3375 22.0022 20.232 22.5159 21.1309C22.9833 21.9476 23.4432 22.7689 23.909 23.5872C24.4376 24.5129 24.9707 25.4372 25.5008 26.3615C25.7143 26.7348 25.9189 27.1141 26.1443 27.4799C26.4266 27.2649 26.667 26.9916 26.8506 26.6751Z" fill="#F2F2F2"/>
<path d="M14.3899 17.483C15.9996 17.483 17.6078 17.483 19.2174 17.4844C19.4683 17.4844 19.6788 17.4083 19.8117 17.1783C20.1611 16.5781 20.5135 15.9778 20.8584 15.3746C21.3198 14.5653 21.7738 13.7515 22.2352 12.9422C22.6996 12.1239 23.1669 11.3086 23.6358 10.4933C23.8583 10.1066 24.0867 9.72433 24.3077 9.33908C24.4839 9.02999 24.6601 8.71941 24.8303 8.40733C24.6945 8.38643 24.5571 8.37598 24.4167 8.37598H16.2714C15.2664 8.37598 14.3392 8.91203 13.8375 9.77958L9.76403 16.8245C9.64308 17.035 9.55051 17.256 9.48779 17.4844C11.0243 17.4844 12.5608 17.4844 14.0988 17.4844C14.1958 17.483 14.2929 17.483 14.3899 17.483Z" fill="#F2F2F2"/>
</svg>
