<svg width="47" height="40" viewBox="0 0 47 40" fill="none" xmlns="http://www.w3.org/2000/svg">
<path d="M23.6423 10.8328C25.2713 10.8328 26.9007 10.8337 28.5298 10.8315C28.7833 10.8312 28.9659 10.9171 29.0959 11.1488C29.4004 11.6917 29.7259 12.2235 30.0398 12.7613C30.4356 13.4394 30.8294 14.1184 31.2227 14.7978C31.4849 15.2506 31.7427 15.706 32.0062 16.1581C32.2714 16.6132 32.542 17.0654 32.8082 17.5201C33.2085 18.2046 33.6069 18.8903 34.0059 19.5758C34.135 19.7976 34.105 20.0136 33.9798 20.2261C33.6108 20.8518 33.2401 21.4762 32.8743 22.1032C32.3766 22.956 31.8836 23.8118 31.3865 24.6653C30.9633 25.392 30.5356 26.1161 30.1123 26.8428C29.7733 27.4247 29.431 28.005 29.1039 28.5936C28.9707 28.833 28.7817 28.9212 28.5181 28.9209C25.2839 28.9186 22.0497 28.917 18.8155 28.9228C18.4987 28.9234 18.2768 28.8298 18.1345 28.532C18.0071 28.2648 17.8358 28.0181 17.6868 27.7606C17.3529 27.1844 17.0223 26.6063 16.6871 26.0308C16.5077 25.7224 16.3197 25.4192 16.1397 25.1114C15.7413 24.4302 15.3451 23.7476 14.9487 23.065C14.56 22.3962 14.1709 21.7277 13.7835 21.0582C13.6048 20.7495 13.4287 20.4392 13.2532 20.1286C13.1584 19.9609 13.1584 19.7896 13.2542 19.6231C13.5435 19.1214 13.8345 18.6206 14.1261 18.1202C14.3697 17.7022 14.6151 17.2852 14.859 16.8672C15.1229 16.4151 15.3868 15.9632 15.6493 15.5104C15.9774 14.9448 16.3045 14.3789 16.6313 13.8123C16.851 13.4314 17.0668 13.0479 17.289 12.6683C17.5094 12.2919 17.7365 11.9196 17.9587 11.5441C18.0355 11.4144 18.1152 11.2856 18.179 11.1494C18.2929 10.9072 18.49 10.8308 18.7432 10.8318C19.812 10.8347 20.8807 10.8331 21.9494 10.8331C22.5133 10.8328 23.0778 10.8328 23.6423 10.8328Z" fill="#CBCBCB"/>
<path d="M25.9878 34.5414C24.4297 34.5414 22.8939 34.5414 21.3365 34.5414C21.3587 34.7233 21.3787 34.9013 21.4026 35.0786C21.4294 35.2777 21.4765 35.4761 21.4836 35.6755C21.4913 35.8954 21.411 36.0996 21.1335 36.2044C20.4848 36.4492 19.8477 36.7237 19.2061 36.986C18.5826 37.2407 17.959 37.4944 17.3358 37.7491C16.5242 38.0811 15.7129 38.4144 14.9009 38.7455C14.3622 38.9654 13.8219 39.1814 13.2835 39.4022C13.0848 39.4837 12.8909 39.5779 12.6916 39.6575C12.3641 39.7885 12.0812 39.7598 11.9432 39.4795C11.8703 39.3316 11.8532 39.1533 11.8296 38.9858C11.7545 38.4537 11.6883 37.9204 11.6183 37.3877C11.568 37.0046 11.5174 36.6214 11.4661 36.2383C11.3896 35.6669 11.3125 35.0955 11.2354 34.5242C11.1767 34.0902 11.117 33.6563 11.058 33.2223C10.9799 32.6471 10.9019 32.0722 10.8238 31.497C10.7661 31.0707 10.6973 30.6457 10.6544 30.2179C10.6257 29.9312 10.7261 29.7069 11.0332 29.5922C11.3354 29.479 11.6306 29.3467 11.9283 29.2224C11.9422 29.2167 11.9538 29.2065 11.9825 29.1882C11.2128 27.8675 10.4454 26.5503 9.6696 25.2187C9.48121 25.3597 9.30056 25.4942 9.12056 25.6297C9.01217 25.7112 8.90572 25.7949 8.79701 25.8757C8.58443 26.0339 8.34539 26.0349 8.13378 25.8741C7.537 25.421 6.94151 24.9666 6.3457 24.5122C5.78796 24.0869 5.23118 23.6606 4.67311 23.2362C4.0644 22.7732 3.4531 22.3133 2.84535 21.8494C2.17406 21.3371 1.50793 20.8178 0.834373 20.3081C0.53921 20.0851 0.52179 19.6604 0.822115 19.4386C1.36405 19.0392 1.89438 18.6241 2.42987 18.2157C3.09826 17.706 3.76697 17.1966 4.43504 16.6866C5.36602 15.9756 6.29667 15.2643 7.22764 14.5533C7.50926 14.3382 7.79087 14.1225 8.07346 13.9084C8.37701 13.678 8.55765 13.6786 8.8583 13.9075C9.13379 14.1171 9.40959 14.3257 9.69121 14.5392C9.86637 14.2423 10.0364 13.957 10.2038 13.6703C10.4522 13.2457 10.699 12.8203 10.9461 12.3947C11.2844 11.8118 11.6206 11.2273 11.9622 10.6464C12.0106 10.5643 11.9974 10.5355 11.9112 10.5023C11.6099 10.3863 11.3119 10.262 11.0119 10.1421C10.7144 10.0233 10.6186 9.83344 10.6557 9.4928C10.7183 8.91568 10.808 8.34176 10.887 7.76656C10.958 7.2508 11.0322 6.73568 11.1012 6.21992C11.178 5.64408 11.2483 5.0676 11.3257 4.49176C11.3922 3.99965 11.467 3.50849 11.5338 3.01638C11.6019 2.51532 11.6628 2.0133 11.7303 1.51191C11.7793 1.14826 11.8361 0.785885 11.8851 0.422551C11.9351 0.0531453 12.2712 -0.0893762 12.628 0.0582582C13.4161 0.383885 14.2054 0.706316 14.9942 1.03002C15.9235 1.41125 16.8522 1.79344 17.7822 2.17275C18.6197 2.51468 19.4587 2.85309 20.2968 3.19373C20.5923 3.31388 20.8871 3.435 21.181 3.55834C21.4226 3.65964 21.5036 3.86064 21.4819 4.09967C21.4497 4.45278 21.3942 4.80397 21.339 5.15452C21.3245 5.24783 21.3529 5.26413 21.4348 5.26381C21.8713 5.26189 22.3074 5.26285 22.7439 5.26285C23.7726 5.26285 24.8016 5.26285 25.8304 5.26253C25.8807 5.26253 25.931 5.25774 25.9942 5.25454C25.9581 4.98644 25.9181 4.73367 25.8916 4.47962C25.8713 4.28565 25.852 4.08912 25.8607 3.89484C25.8681 3.72547 25.9907 3.61842 26.1439 3.55611C26.8784 3.25668 27.6146 2.96142 28.3484 2.66135C29.3075 2.26894 30.2646 1.87173 31.2236 1.479C31.7917 1.24636 32.3627 1.02108 32.9304 0.788761C33.5165 0.548775 34.1017 0.306552 34.6853 0.060495C34.9659 -0.0577403 35.2427 -0.00309637 35.3666 0.228261C35.423 0.333395 35.4485 0.459619 35.4653 0.579452C35.5578 1.24061 35.6433 1.90241 35.7314 2.56421C35.8449 3.4171 35.9562 4.26999 36.0724 5.12225C36.1637 5.79459 36.264 6.46565 36.3543 7.13832C36.4401 7.77647 36.5179 8.4159 36.6004 9.05437C36.6185 9.19497 36.6504 9.3343 36.663 9.47522C36.692 9.80532 36.612 10.0319 36.2791 10.1527C35.9717 10.2639 35.6724 10.3959 35.3695 10.5195C35.3404 10.5314 35.3136 10.5483 35.2695 10.5713C36.0443 11.9013 36.8159 13.2258 37.595 14.5629C37.8204 14.3935 38.0353 14.2318 38.2504 14.0701C38.3588 13.9889 38.464 13.903 38.5766 13.8279C38.7566 13.7077 38.9485 13.7001 39.124 13.8269C39.4695 14.0765 39.8082 14.3357 40.1472 14.5942C40.9524 15.2077 41.7556 15.8238 42.5605 16.4374C43.175 16.9058 43.7927 17.3705 44.4069 17.8396C45.1066 18.3739 45.8005 18.9162 46.5041 19.4453C46.7889 19.6598 46.7847 20.0755 46.5041 20.2906C46.1657 20.55 45.8282 20.8108 45.4895 21.0696C44.7708 21.6186 44.0521 22.1673 43.3327 22.715C42.7273 23.1758 42.1201 23.6347 41.515 24.0958C40.7418 24.6851 39.9701 25.2766 39.1969 25.8658C38.9682 26.04 38.7375 26.0384 38.5053 25.8633C38.2285 25.6546 37.9537 25.4434 37.6779 25.2338C37.6627 25.2223 37.6446 25.2143 37.6185 25.1996C36.8443 26.528 36.0724 27.8519 35.294 29.1876C35.5843 29.3055 35.8607 29.4177 36.1369 29.5302C36.2108 29.5602 36.2856 29.5883 36.3575 29.6222C36.612 29.742 36.6972 29.9625 36.663 30.2476C36.5914 30.8435 36.5072 31.4382 36.4262 32.0332C36.3666 32.4707 36.3014 32.9075 36.242 33.345C36.1666 33.901 36.0959 34.4574 36.0208 35.0134C35.952 35.5215 35.8782 36.029 35.8104 36.5371C35.7259 37.1717 35.6475 37.807 35.5617 38.4413C35.5201 38.7497 35.4685 39.0571 35.4201 39.3645C35.3788 39.6265 35.0895 39.7911 34.8414 39.7166C34.644 39.6575 34.452 39.5795 34.2611 39.5019C33.5188 39.2002 32.7778 38.8957 32.0365 38.5918C31.2104 38.2531 30.3846 37.9137 29.5581 37.5759C28.8242 37.2759 28.0897 36.9761 27.3549 36.678C26.9342 36.507 26.5117 36.3405 26.0913 36.1692C25.9142 36.097 25.8049 35.8369 25.8381 35.6238C25.8929 35.2687 25.9368 34.9128 25.9878 34.5414ZM23.6294 31.5568C25.7991 31.5568 27.9684 31.5523 30.1381 31.5635C30.3675 31.5648 30.4852 31.4916 30.5907 31.3018C30.9336 30.6854 31.2927 30.0779 31.6468 29.4679C31.7804 29.2381 31.9191 29.0112 32.0523 28.7811C32.333 28.2977 32.6101 27.8122 32.8914 27.3291C33.1546 26.8766 33.422 26.4263 33.6852 25.9738C33.8407 25.7067 33.9885 25.4351 34.1449 25.1686C34.2853 24.9295 34.4365 24.6966 34.5769 24.4572C34.7533 24.1565 34.9217 23.8514 35.0969 23.5497C35.3675 23.0835 35.6417 22.6195 35.9133 22.1539C36.0691 21.8867 36.2211 21.618 36.3772 21.3508C36.6388 20.9025 36.9008 20.4542 37.1669 20.0087C37.214 19.9298 37.2114 19.8678 37.1666 19.7914C36.8243 19.2066 36.4849 18.6199 36.1443 18.0345C36.0011 17.7881 35.8566 17.5427 35.7133 17.2963C35.4478 16.8406 35.183 16.3846 34.9178 15.929C34.7604 15.6586 34.6027 15.3883 34.4449 15.1179C34.1749 14.6555 33.9043 14.1935 33.6349 13.7307C33.3659 13.2687 33.0981 12.8059 32.8288 12.3442C32.5272 11.8268 32.224 11.3101 31.922 10.7927C31.6943 10.4026 31.4675 10.0121 31.2391 9.62222C30.9885 9.19402 30.7365 8.76677 30.4862 8.33857C30.4472 8.27178 30.3994 8.23982 30.3139 8.24014C25.8626 8.24238 21.4113 8.24238 16.96 8.24014C16.8755 8.24014 16.8264 8.26922 16.7874 8.33729C16.6767 8.52902 16.5622 8.71884 16.4516 8.91057C16.2084 9.33206 15.9684 9.75547 15.7242 10.1766C15.3006 10.9075 14.8761 11.638 14.45 12.3672C14.2219 12.7574 13.9864 13.1428 13.7593 13.5336C13.4187 14.1193 13.0848 14.7089 12.7441 15.2946C12.5228 15.6749 12.2916 16.0497 12.0699 16.4297C11.7328 17.0084 11.4015 17.5906 11.0651 18.1697C10.7541 18.7046 10.4441 19.2402 10.1231 19.7694C10.0609 19.8723 10.067 19.9432 10.1235 20.0368C10.3886 20.4785 10.6522 20.921 10.9109 21.3665C11.2773 21.9967 11.6383 22.6297 12.0032 23.2605C12.2551 23.6967 12.509 24.1316 12.7622 24.5668C13.0496 25.0602 13.3377 25.553 13.6251 26.0461C14.0464 26.7686 14.4671 27.4914 14.888 28.2142C15.3154 28.9473 15.7425 29.6807 16.1709 30.4131C16.369 30.7518 16.5758 31.0858 16.7664 31.4287C16.8242 31.5322 16.8874 31.5593 17.0006 31.5593C19.21 31.5558 21.4197 31.5568 23.6294 31.5568Z" fill="#CBCBCB"/>
</svg>
