<svg width="931" height="838" viewBox="0 0 931 838" fill="none" xmlns="http://www.w3.org/2000/svg">
<g filter="url(#filter0_d_416_2)">
<path d="M293.947 830H637.053C679.372 830 718.418 807.446 739.577 770.867L911.13 474.11C932.29 437.53 932.29 392.47 911.13 355.89L739.577 59.1334C718.418 22.5541 679.325 0 637.053 0H293.947C251.628 0 212.582 22.5541 191.423 59.1334L19.8696 355.89C-1.28987 392.47 -1.28987 437.53 19.8696 474.11L191.423 770.867C212.582 807.446 251.675 830 293.947 830Z" fill="#158BCE"/>
</g>
<mask id="mask0_416_2" style="mask-type:alpha" maskUnits="userSpaceOnUse" x="3" y="0" width="923" height="830">
<path d="M292.947 830H636.053C678.372 830 717.418 807.446 738.577 770.867L910.13 474.11C931.29 437.53 931.29 392.47 910.13 355.89L738.577 59.1334C717.418 22.5541 678.325 0 636.053 0H292.947C250.628 0 211.582 22.5541 190.423 59.1334L18.8696 355.89C-2.28987 392.47 -2.28987 437.53 18.8696 474.11L190.423 770.867C211.582 807.446 250.675 830 292.947 830Z" fill="#158BCE"/>
</mask>
<g mask="url(#mask0_416_2)">
<path d="M967.533 825.129C959.351 819.05 951.297 812.83 943.163 806.704C936.017 801.319 928.84 795.996 921.694 790.61C912.332 783.571 903.002 776.501 893.639 769.462C889.7 766.501 885.76 763.525 881.741 760.659C879.699 759.21 877.466 759.289 875.377 760.674C874.069 761.541 872.841 762.517 871.581 763.462C869.077 765.32 866.589 767.178 863.957 769.115C854.898 753.777 845.934 738.565 836.923 723.306C837.433 723.038 837.752 722.849 838.087 722.707C841.612 721.29 845.089 719.778 848.662 718.503C852.537 717.117 853.462 714.519 853.127 710.723C852.984 709.101 852.617 707.511 852.394 705.889C851.437 698.566 850.528 691.228 849.539 683.905C848.486 676.189 847.322 668.489 846.253 660.772C844.897 650.993 843.606 641.198 842.298 631.419C841.277 623.829 840.272 616.223 839.204 608.648C839.012 607.278 838.709 605.829 838.055 604.617C836.62 601.956 833.398 601.341 830.128 602.696C823.35 605.514 816.539 608.302 809.729 611.058C803.126 613.719 796.491 616.301 789.888 618.979C778.739 623.482 767.622 628.049 756.473 632.553C747.94 636.002 739.391 639.387 730.842 642.82C729.056 643.529 727.637 644.757 727.557 646.71C727.461 648.946 727.684 651.198 727.924 653.418C728.227 656.332 728.689 659.229 729.12 662.316C728.386 662.347 727.796 662.41 727.222 662.41C715.26 662.41 703.298 662.41 691.351 662.41C686.279 662.41 681.207 662.394 676.135 662.426C675.179 662.426 674.86 662.237 675.019 661.166C675.657 657.15 676.311 653.119 676.678 649.056C676.933 646.316 675.992 644.001 673.185 642.836C669.772 641.419 666.342 640.033 662.913 638.647C653.168 634.742 643.423 630.852 633.678 626.931C622.864 622.585 612.066 618.191 601.268 613.813C592.097 610.097 582.926 606.396 573.771 602.664C569.625 600.963 565.717 602.601 565.143 606.837C564.569 611.01 563.915 615.168 563.34 619.341C562.559 625.089 561.841 630.852 561.06 636.6C560.278 642.253 559.417 647.891 558.635 653.529C557.742 660.142 556.913 666.756 556.02 673.355C555.222 679.276 554.361 685.181 553.531 691.102C552.606 697.7 551.57 704.283 550.836 710.912C550.405 714.818 551.522 717.007 554.983 718.361C558.476 719.731 561.937 721.164 565.43 722.487C566.435 722.865 566.578 723.195 566.02 724.14C562.048 730.801 558.141 737.51 554.201 744.203C551.33 749.084 548.459 753.966 545.573 758.848C543.627 762.139 541.649 765.414 539.608 768.816C536.338 766.359 533.132 763.966 529.926 761.572C526.433 758.942 524.328 758.942 520.803 761.588C517.517 764.044 514.248 766.517 510.978 768.989C500.164 777.146 489.335 785.319 478.521 793.476C470.753 799.335 462.986 805.177 455.219 811.019C448.998 815.712 442.826 820.468 436.526 825.05C433.033 827.601 433.24 832.467 436.669 835.034C444.5 840.876 452.236 846.845 460.051 852.719C467.117 858.041 474.214 863.317 481.296 868.639C487.787 873.505 494.247 878.403 500.738 883.284C507.661 888.497 514.583 893.709 521.521 898.906C523.977 900.748 526.752 900.733 529.224 898.922C530.484 897.993 531.728 897.032 532.988 896.103C535.078 894.544 537.183 893.001 539.368 891.394C548.38 906.669 557.311 921.787 566.259 936.952C565.924 937.157 565.797 937.283 565.637 937.346C562.176 938.779 558.747 940.29 555.238 941.582C551.665 942.904 550.501 945.471 550.836 948.762C551.33 953.676 552.128 958.557 552.798 963.439C553.707 970.037 554.616 976.636 555.525 983.234C556.211 988.21 556.913 993.186 557.583 998.178C558.476 1004.73 559.369 1011.3 560.262 1017.85C560.852 1022.24 561.442 1026.63 562.033 1031.04C562.846 1037.15 563.612 1043.28 564.489 1049.39C564.76 1051.31 564.967 1053.36 565.813 1055.06C567.423 1058.27 570.709 1058.6 574.505 1057.11C576.818 1056.19 579.083 1055.11 581.379 1054.18C587.632 1051.64 593.916 1049.17 600.184 1046.63C609.626 1042.84 619.052 1039.01 628.478 1035.2C635.719 1032.27 642.976 1029.36 650.217 1026.44C657.682 1023.44 665.082 1020.29 672.627 1017.47C675.848 1016.27 676.789 1013.93 676.694 1011.41C676.614 1009.12 676.056 1006.84 675.753 1004.56C675.482 1002.52 675.242 1000.48 674.987 998.383C693.09 998.383 710.937 998.383 729.056 998.383C728.466 1002.65 727.956 1006.73 727.318 1010.81C726.935 1013.25 728.211 1016.24 730.268 1017.08C735.149 1019.04 740.061 1020.95 744.958 1022.92C753.491 1026.33 762.04 1029.78 770.573 1033.22C780.174 1037.09 789.776 1040.98 799.378 1044.87C807.99 1048.35 816.603 1051.85 825.232 1055.31C827.449 1056.21 829.682 1057.09 831.978 1057.77C834.865 1058.62 838.231 1056.73 838.709 1053.72C839.267 1050.19 839.873 1046.66 840.352 1043.12C841.357 1035.85 842.266 1028.56 843.239 1021.26C844.02 1015.44 844.882 1009.61 845.679 1003.78C846.556 997.406 847.37 991.013 848.247 984.635C848.933 979.612 849.698 974.604 850.384 969.581C851.325 962.746 852.298 955.928 853.143 949.093C853.542 945.818 852.553 943.298 849.587 941.912C848.757 941.519 847.88 941.204 847.019 940.857C843.813 939.566 840.591 938.275 837.226 936.92C846.269 921.598 855.249 906.402 864.244 891.158C864.547 891.331 864.755 891.41 864.93 891.552C868.136 893.961 871.326 896.386 874.548 898.78C877.243 900.796 879.923 900.811 882.586 898.811C891.582 892.056 900.545 885.269 909.525 878.497C916.559 873.206 923.608 867.946 930.658 862.655C939.016 856.372 947.373 850.073 955.731 843.774C959.67 840.798 963.594 837.806 967.517 834.829C970.803 832.373 970.851 827.586 967.533 825.129ZM846.094 848.845L790.621 943.582C783.779 955.266 771.163 962.463 757.478 962.463H646.549C632.88 962.463 620.248 955.266 613.406 943.582L557.934 848.845C551.091 837.176 551.091 822.798 557.934 811.114L613.406 716.377C620.248 704.692 632.864 697.496 646.549 697.496H757.478C771.147 697.496 783.779 704.692 790.621 716.377L846.094 811.114C852.936 822.783 852.936 837.176 846.094 848.845Z" fill="#007ABE"/>
<path d="M771.514 740.88C766.155 731.715 756.234 726.077 745.516 726.077H658.511C647.777 726.077 637.873 731.731 632.513 740.88L589.003 815.177C583.644 824.342 583.644 835.617 589.003 844.782L632.513 919.078C637.873 928.243 647.793 933.881 658.511 933.881H745.516C756.25 933.881 766.155 928.228 771.514 919.078L815.024 844.782C820.383 835.617 820.383 824.342 815.024 815.177L771.514 740.88Z" fill="#007ABE"/>
</g>
<defs>
<filter id="filter0_d_416_2" x="0" y="0" width="931" height="838" filterUnits="userSpaceOnUse" color-interpolation-filters="sRGB">
<feFlood flood-opacity="0" result="BackgroundImageFix"/>
<feColorMatrix in="SourceAlpha" type="matrix" values="0 0 0 0 0 0 0 0 0 0 0 0 0 0 0 0 0 0 127 0" result="hardAlpha"/>
<feOffset dy="4"/>
<feGaussianBlur stdDeviation="2"/>
<feComposite in2="hardAlpha" operator="out"/>
<feColorMatrix type="matrix" values="0 0 0 0 0 0 0 0 0 0 0 0 0 0 0 0 0 0 0.25 0"/>
<feBlend mode="normal" in2="BackgroundImageFix" result="effect1_dropShadow_416_2"/>
<feBlend mode="normal" in="SourceGraphic" in2="effect1_dropShadow_416_2" result="shape"/>
</filter>
</defs>
</svg>
