<svg width="370" height="727" viewBox="0 0 370 727" fill="none" xmlns="http://www.w3.org/2000/svg">
<mask id="mask0_444_33" style="mask-type:alpha" maskUnits="userSpaceOnUse" x="0" y="0" width="370" height="727">
<rect width="370" height="727" fill="#C4C4C4"/>
</mask>
<g mask="url(#mask0_444_33)">
<path d="M826.227 357.992C813.74 348.568 801.448 338.924 789.033 329.426C778.128 321.076 767.175 312.823 756.27 304.473C741.981 293.56 727.741 282.597 713.453 271.683C707.44 267.093 701.428 262.479 695.294 258.035C692.178 255.789 688.77 255.911 685.581 258.059C683.585 259.402 681.711 260.916 679.788 262.381C675.967 265.262 672.169 268.143 668.153 271.146C654.327 247.365 640.647 223.78 626.894 200.121C627.673 199.706 628.16 199.413 628.671 199.194C634.05 196.996 639.357 194.652 644.809 192.675C650.724 190.526 652.136 186.498 651.625 180.613C651.406 178.099 650.846 175.633 650.505 173.118C649.045 161.765 647.657 150.387 646.148 139.034C644.541 127.07 642.765 115.131 641.134 103.167C639.065 88.0054 637.093 72.819 635.097 57.6569C633.539 45.8887 632.006 34.096 630.375 22.3521C630.083 20.228 629.62 17.9817 628.622 16.1017C626.431 11.9755 621.514 11.0233 616.524 13.123C606.179 17.4934 595.785 21.815 585.391 26.0877C575.314 30.2139 565.188 34.218 555.11 38.3687C538.096 45.3515 521.129 52.432 504.115 59.4149C491.092 64.7619 478.045 70.0112 464.998 75.3338C462.271 76.4325 460.105 78.3369 459.983 81.3644C459.837 84.8314 460.178 88.3228 460.543 91.7654C461.006 96.2823 461.712 100.775 462.369 105.56C461.249 105.609 460.348 105.707 459.472 105.707C441.216 105.707 422.96 105.707 404.728 105.707C396.987 105.707 389.247 105.682 381.506 105.731C380.045 105.731 379.559 105.438 379.802 103.778C380.776 97.5519 381.774 91.3015 382.334 85.0023C382.723 80.754 381.287 77.1649 377.003 75.3582C371.794 73.1608 366.56 71.0122 361.327 68.8637C346.454 62.8086 331.581 56.778 316.709 50.6985C300.205 43.9598 283.726 37.1479 267.246 30.3604C253.25 24.5983 239.254 18.8607 225.281 13.0742C218.953 10.4373 212.989 12.9766 212.113 19.5443C211.236 26.0144 210.238 32.4601 209.362 38.9302C208.169 47.8419 207.074 56.778 205.881 65.6896C204.688 74.4548 203.374 83.1956 202.181 91.9363C200.818 102.191 199.552 112.445 198.189 122.675C196.972 131.856 195.658 141.011 194.392 150.192C192.98 160.422 191.398 170.628 190.278 180.906C189.621 186.961 191.325 190.355 196.607 192.455C201.938 194.579 207.22 196.801 212.551 198.852C214.084 199.438 214.303 199.951 213.451 201.415C207.39 211.743 201.427 222.144 195.414 232.521C191.033 240.09 186.651 247.658 182.245 255.227C179.276 260.33 176.257 265.409 173.142 270.682C168.152 266.873 163.259 263.162 158.366 259.451C153.035 255.374 149.822 255.374 144.443 259.476C139.429 263.284 134.438 267.118 129.448 270.951C112.945 283.598 96.4169 296.27 79.9133 308.917C68.0589 318 56.2045 327.058 44.3501 336.116C34.8569 343.392 25.4367 350.765 15.8218 357.87C10.491 361.825 10.8074 369.37 16.0408 373.35C27.9926 382.408 39.7983 391.661 51.7257 400.768C62.509 409.021 73.341 417.2 84.1487 425.452C94.0557 432.997 103.914 440.59 113.821 448.159C124.385 456.24 134.95 464.322 145.538 472.379C149.287 475.235 153.522 475.211 157.295 472.403C159.218 470.963 161.117 469.473 163.04 468.033C166.229 465.616 169.442 463.223 172.777 460.733C186.53 484.416 200.161 507.855 213.817 531.367C213.305 531.684 213.111 531.879 212.867 531.977C207.585 534.199 202.352 536.543 196.996 538.545C191.544 540.596 189.767 544.576 190.278 549.678C191.033 557.296 192.25 564.865 193.272 572.434C194.66 582.664 196.047 592.894 197.435 603.124C198.481 610.839 199.552 618.555 200.575 626.294C201.938 636.451 203.301 646.632 204.664 656.789C205.565 663.601 206.465 670.413 207.366 677.249C208.607 686.723 209.776 696.22 211.115 705.693C211.528 708.672 211.845 711.846 213.135 714.483C215.593 719.464 220.608 719.977 226.401 717.657C229.931 716.241 233.387 714.556 236.892 713.116C246.434 709.185 256.025 705.352 265.591 701.421C280.001 695.537 294.387 689.604 308.773 683.695C319.824 679.154 330.9 674.637 341.951 670.12C353.343 665.457 364.637 660.574 376.151 656.203C381.068 654.348 382.504 650.71 382.358 646.803C382.236 643.263 381.384 639.723 380.922 636.182C380.508 633.033 380.143 629.859 379.753 626.612C407.381 626.612 434.619 626.612 462.271 626.612C461.371 633.228 460.592 639.552 459.618 645.875C459.034 649.66 460.981 654.299 464.121 655.593C471.57 658.645 479.067 661.599 486.54 664.651C499.563 669.949 512.61 675.296 525.633 680.619C540.286 686.625 554.94 692.656 569.594 698.686C582.738 704.082 595.883 709.502 609.051 714.874C612.435 716.265 615.843 717.633 619.348 718.683C623.754 720.001 628.89 717.071 629.62 712.408C630.472 706.939 631.397 701.47 632.127 695.976C633.661 684.696 635.048 673.392 636.533 662.087C637.726 653.054 639.04 644.02 640.257 634.986C641.596 625.098 642.838 615.185 644.176 605.297C645.223 597.508 646.391 589.744 647.438 581.956C648.874 571.359 650.359 560.787 651.649 550.191C652.258 545.113 650.749 541.206 646.221 539.058C644.955 538.447 643.617 537.959 642.302 537.422C637.409 535.42 632.492 533.418 627.356 531.318C641.158 507.562 654.862 484.001 668.591 460.366C669.054 460.635 669.37 460.757 669.638 460.977C674.53 464.712 679.399 468.472 684.316 472.184C688.429 475.309 692.519 475.333 696.584 472.232C710.313 461.758 723.993 451.235 737.697 440.736C748.432 432.533 759.191 424.378 769.95 416.174C782.705 406.433 795.46 396.666 808.215 386.9C814.227 382.286 820.215 377.647 826.203 373.032C831.217 369.223 831.29 361.801 826.227 357.992Z" fill="#F2F2F2"/>
<path d="M556.23 189.379C545.787 171.262 526.509 160.104 505.648 160.104L336.352 160.104C315.467 160.104 296.213 171.262 285.77 189.379L201.11 336.262C190.667 354.379 190.667 376.67 201.11 394.762L285.77 541.646C296.213 559.762 315.491 570.92 336.352 570.92L505.648 570.92C526.533 570.92 545.787 559.762 556.23 541.646L640.89 394.762C651.332 376.67 651.332 354.354 640.89 336.262L556.23 189.379Z" fill="white"/>
<path d="M527.069 227.369C518.89 213.159 503.749 204.419 487.392 204.419L354.608 204.419C338.226 204.419 323.11 213.184 314.931 227.369L248.528 342.562C240.349 356.771 240.349 374.253 248.528 388.463L314.931 503.655C323.11 517.865 338.251 526.606 354.608 526.606L487.392 526.606C503.774 526.606 518.89 517.841 527.069 503.655L593.472 388.463C601.651 374.253 601.651 356.771 593.472 342.562L527.069 227.369Z" fill="#F2F2F2"/>
</g>
</svg>
