<svg width="70" height="60" viewBox="0 0 70 60" fill="none" xmlns="http://www.w3.org/2000/svg">
<path d="M34.6332 16.2853C37.0822 16.2853 39.5317 16.2868 41.9807 16.2834C42.3618 16.2829 42.6363 16.4122 42.8318 16.7605C43.2895 17.5767 43.7789 18.376 44.2507 19.1846C44.8458 20.204 45.4379 21.2248 46.029 22.2461C46.4233 22.9269 46.8108 23.6114 47.207 24.2912C47.6056 24.9753 48.0125 25.6551 48.4126 26.3387C49.0144 27.3677 49.6133 28.3986 50.2132 29.4291C50.4072 29.7625 50.3621 30.0872 50.1739 30.4067C49.6191 31.3473 49.0619 32.286 48.512 33.2286C47.7637 34.5108 47.0227 35.7973 46.2754 37.0804C45.6391 38.1728 44.9961 39.2614 44.3598 40.3539C43.8502 41.2287 43.3356 42.1011 42.8439 42.986C42.6436 43.3458 42.3594 43.4784 41.9632 43.4779C37.1011 43.4745 32.239 43.4721 27.3768 43.4808C26.9006 43.4817 26.567 43.341 26.3531 42.8933C26.1615 42.4916 25.904 42.1208 25.68 41.7336C25.1781 40.8674 24.681 39.9984 24.1771 39.1332C23.9075 38.6696 23.6248 38.2137 23.3542 37.7511C22.7552 36.7268 22.1597 35.7007 21.5637 34.6746C20.9794 33.6691 20.3945 32.6641 19.8121 31.6577C19.5434 31.1936 19.2786 30.7271 19.0148 30.2602C18.8722 30.008 18.8722 29.7505 19.0163 29.5002C19.4513 28.746 19.8887 27.9932 20.3271 27.2409C20.6932 26.6125 21.0623 25.9856 21.4289 25.3572C21.8256 24.6775 22.2223 23.9982 22.617 23.3174C23.1102 22.4671 23.602 21.6163 24.0932 20.7646C24.4235 20.192 24.7479 19.6155 25.082 19.0448C25.4133 18.4788 25.7547 17.9192 26.0888 17.3547C26.2042 17.1597 26.324 16.9661 26.42 16.7614C26.5912 16.3973 26.8875 16.2825 27.2682 16.2839C28.8749 16.2882 30.4815 16.2858 32.0881 16.2858C32.9358 16.2853 33.7845 16.2853 34.6332 16.2853Z" fill="#007ABE"/>
<path d="M38.1592 51.9275C35.8169 51.9275 33.5081 51.9275 31.1667 51.9275C31.2002 52.2009 31.2302 52.4684 31.2661 52.7351C31.3064 53.0343 31.3772 53.3327 31.3879 53.6324C31.3995 53.963 31.2787 54.2699 30.8617 54.4275C29.8864 54.7955 28.9287 55.2082 27.9641 55.6026C27.0267 55.9854 26.0893 56.3669 25.1524 56.7498C23.9322 57.2489 22.7126 57.75 21.4919 58.2476C20.6821 58.5782 19.8698 58.9029 19.0604 59.2349C18.7617 59.3574 18.4702 59.4991 18.1705 59.6187C17.6783 59.8157 17.253 59.7724 17.0454 59.3511C16.9358 59.1287 16.9101 58.8606 16.8747 58.6089C16.7617 57.809 16.6623 57.0073 16.5571 56.2064C16.4814 55.6304 16.4053 55.0544 16.3282 54.4784C16.2132 53.6195 16.0973 52.7605 15.9814 51.9016C15.8932 51.2492 15.8034 50.5968 15.7147 49.9444C15.5973 49.0797 15.48 48.2155 15.3626 47.3507C15.2758 46.7099 15.1725 46.071 15.108 45.4277C15.0649 44.9968 15.2157 44.6595 15.6774 44.4871C16.1318 44.317 16.5755 44.1181 17.0231 43.9313C17.044 43.9226 17.0614 43.9072 17.1046 43.8799C15.9475 41.8944 14.7938 39.9142 13.6275 37.9123C13.3443 38.1242 13.0727 38.3264 12.8021 38.5301C12.6391 38.6526 12.4791 38.7785 12.3157 38.9C11.9961 39.1378 11.6367 39.1393 11.3186 38.8976C10.4215 38.2164 9.52624 37.5333 8.63053 36.8502C7.79205 36.2108 6.95502 35.5699 6.11606 34.9319C5.20095 34.2358 4.28197 33.5445 3.36832 32.847C2.35913 32.0769 1.35771 31.2963 0.34513 30.53C-0.0986005 30.1947 -0.124788 29.5563 0.326702 29.2229C1.14142 28.6224 1.93868 27.9983 2.7437 27.3844C3.74852 26.6181 4.75383 25.8524 5.75816 25.0857C7.15773 24.0168 8.55682 22.9474 9.95639 21.8785C10.3798 21.5552 10.8031 21.2309 11.2279 20.9091C11.6843 20.5627 11.9558 20.5637 12.4078 20.9076C12.822 21.2228 13.2366 21.5365 13.66 21.8574C13.9233 21.4111 14.1789 20.9821 14.4306 20.5512C14.804 19.9127 15.175 19.2733 15.5464 18.6334C16.0551 17.7572 16.5605 16.8785 17.074 16.0051C17.1468 15.8817 17.1269 15.8384 16.9974 15.7885C16.5445 15.6141 16.0964 15.4272 15.6454 15.2471C15.1982 15.0684 15.0542 14.783 15.11 14.2709C15.2041 13.4033 15.3389 12.5405 15.4577 11.6758C15.5644 10.9004 15.6759 10.126 15.7797 9.35065C15.8951 8.48497 16.0008 7.61833 16.1172 6.75265C16.2171 6.01283 16.3296 5.27446 16.43 4.53464C16.5323 3.78137 16.624 3.02667 16.7253 2.27292C16.7991 1.72623 16.8844 1.18145 16.9581 0.635237C17.0333 0.0798954 17.5386 -0.134363 18.075 0.0875818C19.2597 0.577109 20.4464 1.06183 21.6321 1.54848C23.0292 2.12159 24.4254 2.69615 25.8235 3.26639C27.0825 3.78041 28.3438 4.28916 29.6037 4.80126C30.0479 4.98189 30.4912 5.16397 30.933 5.3494C31.2962 5.50169 31.4179 5.80386 31.3854 6.1632C31.3369 6.69404 31.2535 7.222 31.1706 7.749C31.1488 7.88927 31.1915 7.91377 31.3146 7.91329C31.9708 7.91041 32.6264 7.91185 33.2826 7.91185C34.8291 7.91185 36.3761 7.91185 37.9226 7.91137C37.9982 7.91137 38.0739 7.90416 38.1689 7.89936C38.1146 7.49631 38.0545 7.11631 38.0147 6.73439C37.9842 6.44279 37.9551 6.14734 37.9682 5.85526C37.9793 5.60065 38.1636 5.43971 38.394 5.34604C39.4982 4.8959 40.6049 4.45201 41.7081 4.00092C43.1499 3.41099 44.5887 2.81385 46.0305 2.22344C46.8845 1.87371 47.7429 1.53503 48.5964 1.18578C49.4775 0.824995 50.3572 0.460852 51.2345 0.0909446C51.6564 -0.0868033 52.0725 -0.00465489 52.2587 0.343154C52.3436 0.501206 52.3819 0.690964 52.4071 0.871114C52.5463 1.86506 52.6748 2.85997 52.8072 3.85488C52.9779 5.13706 53.1452 6.41925 53.3198 7.70048C53.457 8.71124 53.6079 9.72008 53.7436 10.7313C53.8726 11.6907 53.9895 12.652 54.1137 13.6118C54.1408 13.8232 54.1888 14.0326 54.2077 14.2445C54.2514 14.7407 54.1311 15.0813 53.6307 15.2629C53.1685 15.4301 52.7185 15.6285 52.2631 15.8144C52.2194 15.8322 52.1792 15.8577 52.1128 15.8923C53.2776 17.8917 54.4376 19.8829 55.6088 21.8929C55.9478 21.6383 56.2707 21.3952 56.5942 21.1521C56.7571 21.0301 56.9152 20.9009 57.0845 20.788C57.3551 20.6074 57.6436 20.5958 57.9074 20.7866C58.4268 21.1618 58.936 21.5514 59.4457 21.94C60.6562 22.8624 61.8637 23.7886 63.0736 24.7109C63.9975 25.4152 64.9261 26.1137 65.8495 26.8189C66.9014 27.6222 67.9445 28.4374 69.0022 29.2329C69.4304 29.5553 69.4241 30.1803 69.0022 30.5036C68.4935 30.8937 67.9862 31.2857 67.477 31.6748C66.3965 32.5001 65.3161 33.325 64.2346 34.1484C63.3244 34.8411 62.4117 35.531 61.5019 36.2242C60.3395 37.1101 59.1795 37.9993 58.017 38.8851C57.6732 39.147 57.3265 39.1446 56.9773 38.8813C56.5612 38.5676 56.148 38.25 55.7334 37.9349C55.7106 37.9176 55.6835 37.9056 55.6442 37.8835C54.4803 39.8805 53.3198 41.8708 52.1496 43.8789C52.5861 44.0562 53.0017 44.2248 53.4168 44.3939C53.5278 44.439 53.6404 44.4813 53.7485 44.5322C54.1311 44.7124 54.2592 45.0439 54.2077 45.4724C54.1001 46.3683 53.9735 47.2623 53.8518 48.1569C53.7621 48.8145 53.6641 49.4712 53.5749 50.1289C53.4614 50.9648 53.3552 51.8012 53.2422 52.6371C53.1389 53.4009 53.0279 54.1638 52.926 54.9276C52.799 55.8817 52.6811 56.8367 52.5521 57.7903C52.4896 58.2539 52.412 58.716 52.3392 59.1782C52.2772 59.5721 51.8422 59.8195 51.4692 59.7076C51.1724 59.6187 50.8839 59.5015 50.5968 59.3848C49.4809 58.9313 48.367 58.4734 47.2526 58.0166C46.0106 57.5074 44.7691 56.9972 43.5267 56.4894C42.4234 56.0383 41.3192 55.5877 40.2145 55.1395C39.5821 54.8824 38.9468 54.6322 38.3149 54.3747C38.0487 54.2661 37.8843 53.875 37.9342 53.5546C38.0167 53.0209 38.0826 52.4857 38.1592 51.9275ZM34.6138 47.4406C37.8755 47.4406 41.1368 47.4338 44.3986 47.4507C44.7434 47.4526 44.9204 47.3426 45.079 47.0572C45.5945 46.1305 46.1343 45.2173 46.6667 44.3002C46.8675 43.9548 47.076 43.6137 47.2763 43.2678C47.6982 42.541 48.1148 41.8113 48.5377 41.0849C48.9334 40.4046 49.3354 39.7278 49.7312 39.0475C49.9649 38.6459 50.187 38.2376 50.4222 37.8369C50.6332 37.4776 50.8606 37.1274 51.0716 36.7675C51.3368 36.3155 51.59 35.8567 51.8533 35.4032C52.2602 34.7023 52.6724 34.0048 53.0807 33.3048C53.315 32.9032 53.5434 32.4992 53.7781 32.0976C54.1714 31.4236 54.5652 30.7496 54.9652 30.0799C55.036 29.9612 55.0322 29.868 54.9648 29.7532C54.4502 28.8741 53.9401 27.9921 53.4279 27.112C53.2126 26.7416 52.9954 26.3727 52.7801 26.0023C52.3809 25.3172 51.9828 24.6317 51.5842 23.9466C51.3475 23.5402 51.1104 23.1338 50.8732 22.7274C50.4673 22.0322 50.0604 21.3376 49.6555 20.642C49.2511 19.9473 48.8485 19.2517 48.4436 18.5575C47.9902 17.7797 47.5343 17.0029 47.0804 16.2252C46.738 15.6386 46.3971 15.0516 46.0538 14.4655C45.677 13.8217 45.2982 13.1794 44.9219 12.5357C44.8632 12.4353 44.7914 12.3873 44.6629 12.3877C37.9711 12.3911 31.2792 12.3911 24.5874 12.3877C24.4603 12.3877 24.3866 12.4315 24.3279 12.5338C24.1616 12.822 23.9894 13.1074 23.8231 13.3956C23.4574 14.0293 23.0966 14.6658 22.7295 15.299C22.0928 16.3976 21.4546 17.4958 20.814 18.5921C20.4711 19.1787 20.1171 19.758 19.7757 20.3456C19.2636 21.2261 18.7617 22.1125 18.2495 22.993C17.9169 23.5647 17.5692 24.1282 17.236 24.6994C16.7292 25.5694 16.2312 26.4447 15.7254 27.3152C15.2579 28.1194 14.7918 28.9245 14.3093 29.7201C14.2157 29.8748 14.2249 29.9814 14.3098 30.1222C14.7084 30.7861 15.1046 31.4514 15.4936 32.1211C16.0445 33.0685 16.5871 34.0201 17.1356 34.9684C17.5144 35.6242 17.896 36.278 18.2767 36.9323C18.7088 37.6741 19.1419 38.4148 19.5739 39.1561C20.2073 40.2423 20.8397 41.3289 21.4725 42.4156C22.1151 43.5176 22.7572 44.6201 23.4012 45.7212C23.6989 46.2304 24.0098 46.7325 24.2964 47.2479C24.3832 47.4036 24.4783 47.4444 24.6485 47.4444C27.9699 47.4391 31.2918 47.4406 34.6138 47.4406Z" fill="#007ABE"/>
</svg>
