<svg width="66" height="58" viewBox="0 0 66 58" fill="none" xmlns="http://www.w3.org/2000/svg">
<path d="M36.2952 50.4125C35.9893 50.4125 35.7044 50.4125 35.4195 50.4125C34.473 50.413 33.5265 50.4145 32.5805 50.4145C31.6801 50.4145 30.7793 50.414 29.8789 50.4116C29.7509 50.4111 29.7167 50.4481 29.7362 50.5882C29.8061 51.0803 29.8779 51.574 29.907 52.0695C29.9265 52.4068 29.7804 52.6858 29.4066 52.8359C28.7749 53.0895 28.1519 53.3642 27.5231 53.6254C26.793 53.9285 26.06 54.2234 25.3304 54.527C24.6959 54.7911 24.0648 55.0644 23.4308 55.33C22.7863 55.5999 22.1385 55.8626 21.494 56.1339C20.8291 56.4139 20.1679 56.7045 19.502 56.9831C19.1268 57.1404 18.7444 57.2799 18.3677 57.4334C18.0024 57.5821 17.6376 57.7331 17.277 57.8938C16.8908 58.0661 16.4666 57.9915 16.2735 57.6793C16.1978 57.5575 16.1664 57.3997 16.1441 57.2535C16.0366 56.5554 15.9339 55.8568 15.8402 55.1568C15.7503 54.4861 15.6784 53.8126 15.59 53.1419C15.4944 52.4193 15.384 51.6986 15.2889 50.9759C15.2095 50.3736 15.1491 49.7693 15.0692 49.1669C14.9531 48.2952 14.8214 47.4258 14.7063 46.554C14.614 45.854 14.5307 45.1525 14.4546 44.4506C14.4275 44.2004 14.4023 43.9435 14.4285 43.6957C14.4546 43.4489 14.6397 43.2892 14.8627 43.1963C15.3279 43.0029 15.7964 42.8187 16.263 42.6291C16.2777 42.6233 16.2877 42.6065 16.3106 42.5848C15.2166 40.6681 14.1222 38.7509 13.0178 36.8158C12.8641 36.9327 12.7138 37.0444 12.5659 37.1598C12.3295 37.3441 12.095 37.5312 11.8587 37.716C11.3897 38.0826 11.0016 37.9878 10.544 37.6058C10.2791 37.3845 10.0118 37.1656 9.74162 36.951C9.30451 36.6041 8.86503 36.2601 8.42365 35.919C8.02744 35.6126 7.62554 35.3128 7.22886 35.0064C6.77796 34.6576 6.3323 34.3025 5.88187 33.9527C5.4091 33.5852 4.93204 33.2234 4.45974 32.8548C3.84332 32.3742 3.23118 31.8878 2.61524 31.4067C2.04353 30.9602 1.46992 30.5161 0.895357 30.073C0.691311 29.9157 0.482033 29.7651 0.275609 29.6107C-0.0872973 29.3393 -0.0920536 28.7173 0.262767 28.4416C1.10463 27.7868 1.9446 27.1291 2.78647 26.4738C3.62263 25.8224 4.46069 25.1734 5.2959 24.5205C5.94085 24.0168 6.58058 23.5063 7.22601 23.0031C8.00319 22.3974 8.78417 21.7969 9.56278 21.1936C9.97753 20.8722 10.3899 20.5485 10.8047 20.2276C11.0325 20.0515 11.2846 19.9836 11.5628 20.0842C11.647 20.115 11.7302 20.1597 11.8016 20.2146C12.2163 20.5326 12.6277 20.8559 13.0506 21.1855C14.1493 19.262 15.2418 17.3495 16.3486 15.4121C16.0594 15.2986 15.7774 15.1927 15.4991 15.0768C15.2513 14.9733 15.005 14.8656 14.7638 14.7472C14.4604 14.5976 14.3562 14.3152 14.3866 14.0063C14.4428 13.4367 14.5398 12.8714 14.6149 12.3036C14.6891 11.7422 14.7543 11.1793 14.828 10.6173C14.9317 9.82495 15.0406 9.03352 15.1457 8.24113C15.2475 7.47279 15.3479 6.70397 15.4478 5.93564C15.5534 5.12063 15.6547 4.30515 15.7626 3.49062C15.8858 2.56112 16.0133 1.63257 16.1422 0.704022C16.2221 0.129573 16.6754 -0.137925 17.2138 0.07617C17.6713 0.25803 18.1218 0.457692 18.5779 0.64292C19.0079 0.817564 19.444 0.975369 19.8716 1.1553C20.5251 1.43002 21.1725 1.72061 21.8246 1.99869C22.2041 2.16035 22.5889 2.30949 22.9703 2.46778C23.6158 2.73528 24.2593 3.00663 24.9043 3.27412C25.4698 3.50843 26.0372 3.73743 26.6023 3.97318C27.1188 4.1892 27.632 4.4134 28.1481 4.63134C28.5595 4.8055 28.9704 4.98159 29.3861 5.14565C29.7738 5.29913 29.9502 5.58346 29.9008 5.99626C29.8356 6.53606 29.7742 7.07635 29.7086 7.63685C31.897 7.63685 34.0887 7.63685 36.3009 7.63685C36.2538 7.251 36.2034 6.87477 36.1644 6.49758C36.1377 6.24114 36.112 5.9823 36.1158 5.72491C36.1196 5.49638 36.2657 5.33521 36.4611 5.23947C36.7437 5.10139 37.0333 4.97678 37.3235 4.8541C37.9979 4.5688 38.6733 4.28638 39.3497 4.00541C39.7459 3.84039 40.1454 3.68355 40.5416 3.51757C41.1908 3.24574 41.8372 2.96669 42.4874 2.69583C43.0425 2.46441 43.6027 2.24502 44.1573 2.01168C44.8965 1.70089 45.6304 1.3771 46.3704 1.06774C46.9093 0.842101 47.4544 0.631374 47.9957 0.411986C48.2668 0.302293 48.5331 0.18009 48.8066 0.0771322C49.2233 -0.0801915 49.5591 0.00737091 49.7498 0.353291C49.8383 0.513982 49.8697 0.714606 49.8968 0.901278C49.9757 1.44493 50.0399 1.99148 50.1099 2.53658C50.225 3.43193 50.3363 4.32776 50.4575 5.22167C50.5617 5.98952 50.6849 6.75497 50.7872 7.52331C50.8804 8.22333 50.9508 8.92623 51.0426 9.62673C51.123 10.2406 51.2247 10.8516 51.3061 11.4651C51.3874 12.079 51.4549 12.6948 51.5296 13.3096C51.551 13.4881 51.5715 13.6666 51.601 13.8437C51.6785 14.3089 51.4759 14.6587 51.0411 14.8333C50.5636 15.0248 50.0913 15.2298 49.5981 15.4366C50.6987 17.3635 51.7984 19.2894 52.9109 21.2374C53.1011 21.0916 53.2738 20.9608 53.4445 20.828C53.7042 20.6264 53.962 20.4224 54.2217 20.2208C54.5304 19.9817 54.879 19.9668 55.1887 20.2016C55.7342 20.6149 56.2712 21.0397 56.812 21.4597C57.5844 22.0601 58.3573 22.6596 59.1283 23.2619C59.8765 23.8465 60.6213 24.4363 61.3699 25.0199C61.8784 25.4159 62.394 25.8022 62.902 26.1986C63.3919 26.5811 63.8741 26.9737 64.364 27.3562C64.8083 27.7031 65.2544 28.0476 65.7067 28.3829C66.0915 28.6682 66.1011 29.2758 65.7091 29.5838C65.1422 30.0288 64.57 30.4661 64.0021 30.9097C63.2083 31.5299 62.4173 32.1534 61.6239 32.7735C60.9604 33.2917 60.295 33.807 59.6301 34.3232C58.4562 35.2354 57.2814 36.1471 56.108 37.0602C55.7946 37.3042 55.4802 37.5466 55.1739 37.7987C54.8947 38.0287 54.537 38.0186 54.2555 37.806C53.8293 37.4841 53.4046 37.1593 52.947 36.811C51.854 38.7239 50.7629 40.6325 49.6647 42.5545C49.8154 42.6291 49.95 42.7051 50.0913 42.7638C50.4509 42.9139 50.8152 43.0525 51.1748 43.2031C51.4787 43.3301 51.6661 43.6765 51.6205 44.0306C51.5544 44.5468 51.4773 45.0621 51.4098 45.5783C51.2728 46.6223 51.141 47.6673 51.0031 48.7109C50.8937 49.5427 50.7776 50.3731 50.6668 51.2045C50.5489 52.0878 50.4328 52.9711 50.3168 53.8544C50.1655 55.0081 50.0166 56.1618 49.864 57.3151C49.8097 57.7255 49.6242 57.9434 49.2266 57.9963C49.0673 58.0175 48.8865 57.9593 48.7301 57.8987C48.2715 57.7211 47.8206 57.5219 47.3655 57.3353C46.9155 57.1505 46.4627 56.973 46.0128 56.7878C45.1975 56.4529 44.3833 56.1152 43.569 55.7779C43.178 55.6158 42.7875 55.4522 42.3965 55.2896C41.9485 55.1034 41.4981 54.9215 41.0524 54.7305C40.3166 54.4149 39.5865 54.0849 38.8474 53.776C38.171 53.4936 37.4857 53.2338 36.8065 52.9576C36.6595 52.898 36.5111 52.8287 36.3846 52.7339C36.1349 52.5477 36.0692 52.2711 36.1011 51.9757C36.1582 51.4643 36.2276 50.9552 36.2952 50.4125ZM32.9762 46.0272C32.9762 46.0267 32.9762 46.0258 32.9762 46.0253C34.8711 46.0253 36.766 46.0253 38.6609 46.0253C39.9133 46.0253 41.1651 46.021 42.417 46.032C42.6163 46.0339 42.7295 45.9781 42.818 45.7987C42.9968 45.4369 43.1894 45.0818 43.3878 44.7306C43.6261 44.3087 43.8796 43.8959 44.1207 43.4759C44.457 42.8899 44.7856 42.3 45.1205 41.7136C45.5214 41.0116 45.9257 40.3116 46.3272 39.6096C46.6511 39.0429 46.9712 38.4733 47.296 37.907C47.5919 37.3908 47.8967 36.8798 48.1893 36.3617C48.4128 35.9657 48.6188 35.5587 48.8418 35.1627C49.0406 34.8106 49.2542 34.467 49.4582 34.1182C49.7879 33.5549 50.1203 32.9934 50.4414 32.4252C50.8414 31.717 51.2271 31.0011 51.6266 30.2929C51.8397 29.9152 52.0671 29.5462 52.293 29.1762C52.3534 29.0771 52.3586 28.9992 52.2949 28.8924C52.0338 28.4555 51.7831 28.012 51.531 27.5698C50.829 26.3382 50.1294 25.1051 49.4259 23.8749C48.955 23.0512 48.4756 22.2328 48.0057 21.4087C47.4183 20.3791 46.838 19.3447 46.2511 18.3147C45.7526 17.44 45.2461 16.5701 44.7471 15.696C44.0879 14.5403 43.4315 13.3833 42.7794 12.2238C42.7071 12.0958 42.6268 12.0563 42.4822 12.0563C36.1929 12.0607 29.9036 12.0607 23.6144 12.0573C23.3937 12.0573 23.241 12.0679 23.1183 12.3205C22.8638 12.8434 22.5394 13.3313 22.2531 13.8389C22.0238 14.2449 21.8146 14.663 21.5839 15.0681C21.4065 15.3799 21.2015 15.6748 21.0241 15.9866C20.5984 16.7342 20.1841 17.4886 19.7608 18.2382C19.5477 18.6154 19.3208 18.9844 19.1073 19.3611C18.7915 19.9182 18.4837 20.4801 18.1693 21.0378C17.815 21.6666 17.4592 22.2939 17.1011 22.9203C16.7343 23.5617 16.3662 24.202 15.9962 24.8414C15.6718 25.4014 15.3417 25.9576 15.0187 26.5181C14.7367 27.0084 14.4627 27.5029 14.1835 27.9946C14.0037 28.3117 13.8168 28.6244 13.6427 28.9448C13.6152 28.9958 13.6142 29.0872 13.6413 29.1382C13.7735 29.3884 13.92 29.6309 14.0599 29.8772C14.5074 30.6677 14.9517 31.4601 15.4012 32.2491C15.9058 33.1339 16.4171 34.0143 16.9217 34.8991C17.7042 36.2707 18.4818 37.6453 19.2638 39.0174C19.8626 40.0681 20.4661 41.116 21.0654 42.1663C21.7765 43.4124 22.4862 44.6594 23.1929 45.9079C23.2424 45.9955 23.2971 46.0277 23.396 46.0272C24.0334 46.0238 24.6707 46.0272 25.3081 46.0272C27.8646 46.0277 30.4206 46.0272 32.9762 46.0272Z" fill="#9D9D9D"/>
<path d="M32.9763 46.027C30.4202 46.027 27.8647 46.027 25.3086 46.027C24.6713 46.027 24.0339 46.0237 23.3966 46.027C23.2977 46.0275 23.243 45.9948 23.1935 45.9077C22.4867 44.6592 21.7771 43.4122 21.066 42.1661C20.4667 41.1158 19.8631 40.068 19.2643 39.0172C18.4824 37.6451 17.7047 36.2706 16.9223 34.8989C16.4177 34.0142 15.9064 33.1337 15.4017 32.249C14.9518 31.4599 14.5075 30.6675 14.0604 29.8771C13.9211 29.6307 13.7741 29.3883 13.6419 29.1381C13.6148 29.0871 13.6157 28.9952 13.6433 28.9447C13.8174 28.6247 14.0038 28.3115 14.1841 27.9945C14.4633 27.5028 14.7373 27.0077 15.0193 26.5179C15.3418 25.957 15.6723 25.4008 15.9967 24.8413C16.3668 24.2019 16.7354 23.5615 17.1016 22.9202C17.4598 22.2938 17.8155 21.6664 18.1699 21.0376C18.4843 20.4795 18.792 19.9181 19.1078 19.3609C19.3214 18.9842 19.5483 18.6147 19.7613 18.238C20.1847 17.4889 20.5989 16.7345 21.0246 15.9864C21.202 15.6746 21.407 15.3797 21.5844 15.068C21.8151 14.6624 22.0244 14.2448 22.2537 13.8387C22.54 13.3311 22.8644 12.8433 23.1188 12.3203C23.2415 12.0682 23.3942 12.0572 23.6149 12.0572C29.9042 12.0605 36.1934 12.0605 42.4827 12.0562C42.6278 12.0562 42.7082 12.0956 42.78 12.2236C43.4321 13.3831 44.0884 14.5402 44.7477 15.6958C45.2461 16.5705 45.7532 17.4403 46.2516 18.3145C46.839 19.3446 47.4188 20.379 48.0062 21.4085C48.4761 22.2327 48.9556 23.0511 49.4264 23.8747C50.1299 25.1054 50.8296 26.3385 51.5316 27.5697C51.7837 28.0118 52.0343 28.4554 52.2955 28.8922C52.3592 28.999 52.354 29.077 52.2935 29.1761C52.0681 29.5461 51.8403 29.9156 51.6272 30.2928C51.2277 31.0009 50.8419 31.7173 50.4419 32.425C50.1209 32.9932 49.7884 33.5552 49.4588 34.1181C49.2547 34.4669 49.0407 34.8104 48.8424 35.1626C48.6188 35.559 48.4134 35.9655 48.1898 36.3615C47.8973 36.8797 47.5924 37.3906 47.2966 37.9068C46.9717 38.4731 46.6516 39.0427 46.3277 39.6095C45.9263 40.3114 45.522 41.011 45.121 41.7134C44.7862 42.2999 44.4571 42.8897 44.1213 43.4757C43.8801 43.8957 43.6266 44.3085 43.3883 44.7304C43.19 45.0817 42.9973 45.4367 42.8185 45.7985C42.7296 45.978 42.6168 46.0338 42.4175 46.0319C41.1657 46.0208 39.9134 46.0251 38.6615 46.0251C36.7666 46.0251 34.8717 46.0251 32.9768 46.0251C32.9763 46.0261 32.9763 46.0266 32.9763 46.027ZM32.1316 43.1861C32.9021 43.1861 33.6721 43.1861 34.4426 43.1861C35.92 43.1861 37.3973 43.187 38.8751 43.1861C39.5952 43.1856 39.804 42.5664 39.5523 42.105C39.0425 41.1707 38.5074 40.2508 37.979 39.3271C37.5052 38.4986 37.0244 37.674 36.5511 36.845C36.0836 36.0262 35.6246 35.2025 35.1575 34.3832C34.4008 33.0563 33.6303 31.738 32.8888 30.4029C32.6452 29.9646 32.3261 29.776 31.8319 29.7924C31.0795 29.8169 30.3261 29.7986 29.5731 29.7986C25.917 29.7986 22.2608 29.7967 18.6046 29.8039C18.4343 29.8044 18.2422 29.8453 18.099 29.9324C17.7675 30.134 17.7071 30.5915 17.9254 30.9697C18.2783 31.5807 18.6298 32.1922 18.9804 32.8046C19.5059 33.7236 20.0296 34.6439 20.5547 35.5633C21.3148 36.8951 22.0762 38.2253 22.8353 39.5575C23.4285 40.5982 24.0239 41.6374 24.6075 42.6828C24.8035 43.0336 25.0779 43.1899 25.4756 43.189C27.6934 43.1827 29.9127 43.1861 32.1316 43.1861ZM49.0341 29.077C48.9779 28.9062 48.9537 28.7647 48.889 28.6459C48.665 28.235 48.4252 27.8323 48.1941 27.4253C47.5591 26.3091 46.927 25.1915 46.2906 24.0763C45.6428 22.9404 44.9902 21.8074 44.3405 20.6724C43.8178 19.7588 43.2932 18.8457 42.7767 17.9282C42.5617 17.5462 42.3624 17.155 42.1626 16.7644C42.0404 16.5257 41.735 16.3872 41.4687 16.4266C41.0539 16.4882 40.8922 16.8178 40.7138 17.1257C40.4541 17.5746 40.2135 18.035 39.9571 18.4858C39.5352 19.2277 39.1053 19.9647 38.6819 20.7056C38.3847 21.2257 38.095 21.7501 37.7987 22.2712C37.2479 23.2396 36.6948 24.2067 36.1421 25.1742C35.753 25.8559 35.3649 26.5377 34.9744 27.2184C34.7242 27.6543 34.464 28.084 34.2215 28.5237C34.0783 28.7835 34.0793 29.063 34.2267 29.3219C34.8921 30.4876 35.5666 31.648 36.2324 32.8133C36.8384 33.8732 37.4348 34.9388 38.0398 35.9987C38.7257 37.1996 39.4168 38.3971 40.105 39.5965C40.4104 40.1281 40.6967 40.6723 41.0254 41.189C41.3231 41.6566 41.9785 41.5989 42.2463 41.1139C42.5835 40.5019 42.9298 39.8953 43.2737 39.2871C43.58 38.7449 43.8877 38.2037 44.1959 37.6624C44.5674 37.01 44.9393 36.3581 45.3113 35.7067C45.5486 35.291 45.7869 34.8758 46.0243 34.4601C46.3477 33.8944 46.6702 33.3281 46.9941 32.7628C47.2376 32.338 47.4844 31.9151 47.727 31.4902C48.0766 30.8783 48.4276 30.2668 48.7696 29.6505C48.8752 29.4614 48.9522 29.2569 49.0341 29.077ZM25.3158 28.0782C25.4423 28.0782 25.5688 28.0782 25.6953 28.0782C27.7819 28.0782 29.869 28.0777 31.9556 28.0792C32.2814 28.0792 32.5539 27.98 32.727 27.6827C33.1808 26.9038 33.6374 26.1268 34.0845 25.3436C34.6833 24.2947 35.2721 23.2396 35.8691 22.1894C36.4717 21.129 37.0776 20.071 37.6845 19.0131C37.9718 18.5122 38.2686 18.0167 38.5554 17.5154C38.8479 17.004 39.1405 16.4921 39.4173 15.9715C39.4781 15.857 39.5124 15.7006 39.4915 15.5746C39.4116 15.0877 39.1661 14.8967 38.6701 14.8967C36.6867 14.8967 34.7033 14.8967 32.7199 14.8967C30.288 14.8967 27.8561 14.8976 25.4242 14.8957C25.0632 14.8952 24.7926 15.0487 24.6152 15.3614C24.3412 15.843 24.0782 16.3309 23.8047 16.8125C23.6649 17.0583 23.505 17.2931 23.3657 17.5394C23.155 17.9104 22.9595 18.2904 22.7474 18.6609C22.4425 19.193 22.1243 19.7165 21.8204 20.2491C21.5659 20.695 21.3271 21.1497 21.076 21.5976C20.774 22.1365 20.4677 22.6729 20.1609 23.2089C19.6876 24.0359 19.212 24.861 18.7378 25.6871C18.4795 26.1374 18.2136 26.5839 17.9687 27.0414C17.9078 27.1549 17.8831 27.3099 17.8969 27.4393C17.9435 27.8723 18.2517 28.0787 18.6769 28.0782C20.8891 28.0772 23.1027 28.0782 25.3158 28.0782Z" fill="white"/>
<path d="M32.1315 43.1861C29.9127 43.1861 27.6934 43.1827 25.4746 43.1895C25.077 43.1904 24.8025 43.0341 24.6066 42.6833C24.0225 41.6374 23.4275 40.5982 22.8344 39.558C22.0753 38.2258 21.3138 36.8951 20.5537 35.5638C20.0286 34.6444 19.5049 33.724 18.9794 32.8051C18.6293 32.1927 18.2773 31.5812 17.9244 30.9702C17.7061 30.592 17.7665 30.1349 18.098 29.9329C18.2412 29.8458 18.4334 29.8049 18.6036 29.8044C22.2598 29.7972 25.916 29.7991 29.5722 29.7991C30.3251 29.7991 31.079 29.8174 31.8309 29.7929C32.3251 29.7765 32.6447 29.9651 32.8878 30.4034C33.6293 31.7385 34.4003 33.0572 35.1565 34.3837C35.6236 35.203 36.0826 36.0267 36.5501 36.8455C37.0234 37.6745 37.5043 38.4986 37.978 39.3276C38.5064 40.2513 39.0415 41.1717 39.5514 42.1055C39.803 42.5669 39.5942 43.1861 38.8741 43.1866C37.3968 43.1875 35.9195 43.1866 34.4417 43.1866C33.6721 43.1861 32.902 43.1861 32.1315 43.1861Z" fill="#158BCE"/>
<path d="M49.034 29.077C48.9522 29.2564 48.8752 29.4614 48.7705 29.65C48.4286 30.2663 48.0775 30.8778 47.728 31.4898C47.4854 31.9151 47.2385 32.3375 46.995 32.7623C46.6711 33.3276 46.3486 33.8939 46.0252 34.4597C45.7879 34.8753 45.5496 35.2905 45.3122 35.7062C44.9403 36.3581 44.5683 37.01 44.1969 37.6619C43.8887 38.2032 43.5809 38.7444 43.2746 39.2867C42.9307 39.8948 42.585 40.5019 42.2473 41.1134C41.9795 41.5989 41.3241 41.6561 41.0263 41.1885C40.6976 40.6718 40.4113 40.1281 40.106 39.596C39.4173 38.3966 38.7262 37.1991 38.0408 35.9983C37.4353 34.9379 36.8389 33.8727 36.2334 32.8128C35.5675 31.6476 34.8926 30.4871 34.2276 29.3214C34.0802 29.063 34.0792 28.7835 34.2224 28.5232C34.465 28.0835 34.7251 27.6534 34.9753 27.218C35.3658 26.5372 35.7539 25.8554 36.143 25.1737C36.6952 24.2062 37.2484 23.2392 37.7996 22.2707C38.0959 21.7501 38.3856 21.2257 38.6829 20.7051C39.1062 19.9642 39.5362 19.2267 39.958 18.4853C40.2144 18.0345 40.4551 17.5741 40.7148 17.1252C40.8931 16.8168 41.0548 16.4877 41.4696 16.4261C41.736 16.3867 42.0413 16.5252 42.1635 16.7639C42.3633 17.1545 42.5626 17.5457 42.7776 17.9277C43.2941 18.8452 43.8187 19.7578 44.3415 20.6719C44.9907 21.8069 45.6433 22.9399 46.2915 24.0758C46.9279 25.191 47.5601 26.3087 48.195 27.4248C48.4267 27.8319 48.6659 28.2346 48.8899 28.6454C48.9537 28.7647 48.9779 28.9062 49.034 29.077Z" fill="#158BCE"/>
<path d="M25.3158 28.0782C23.1027 28.0782 20.8896 28.0777 18.676 28.0787C18.2508 28.0787 17.9425 27.8728 17.8959 27.4398C17.8821 27.3099 17.9069 27.1554 17.9678 27.0419C18.2127 26.5843 18.4781 26.1379 18.7368 25.6876C19.2111 24.8615 19.6867 24.0359 20.1599 23.2093C20.4667 22.6734 20.773 22.1369 21.075 21.5981C21.3262 21.1502 21.5649 20.6955 21.8194 20.2495C22.1233 19.717 22.4415 19.193 22.7464 18.6614C22.9585 18.2909 23.154 17.9113 23.3647 17.5399C23.5046 17.2936 23.6639 17.0593 23.8037 16.813C24.0777 16.3314 24.3407 15.8435 24.6142 15.3619C24.7921 15.0492 25.0623 14.8962 25.4233 14.8962C27.8552 14.8981 30.2871 14.8972 32.719 14.8972C34.7024 14.8972 36.6857 14.8972 38.6691 14.8972C39.1652 14.8972 39.4106 15.0882 39.4905 15.5751C39.511 15.7011 39.4772 15.8575 39.4163 15.972C39.1395 16.4921 38.847 17.0044 38.5545 17.5159C38.2677 18.0172 37.9714 18.5127 37.6836 19.0136C37.0767 20.0711 36.4708 21.1295 35.8681 22.1899C35.2712 23.2401 34.6824 24.2952 34.0836 25.344C33.6365 26.1268 33.1799 26.9043 32.7261 27.6832C32.553 27.9801 32.2804 28.0796 31.9546 28.0796C29.868 28.0782 27.781 28.0787 25.6944 28.0787C25.5688 28.0782 25.4423 28.0782 25.3158 28.0782Z" fill="#158BCE"/>
</svg>
