<svg width="264" height="238" viewBox="0 0 264 238" fill="none" xmlns="http://www.w3.org/2000/svg">
<path d="M210.387 16.9596C204.334 6.46416 193.159 0 181.067 0H82.9334C70.8273 0 59.6665 6.46416 53.6134 16.9596L4.5398 102.055C-1.51327 112.55 -1.51327 125.464 4.5398 135.945L53.6134 221.04C59.6665 231.536 70.8414 238 82.9334 238H181.067C193.173 238 204.334 231.536 210.387 221.04L259.46 135.945C265.513 125.464 265.513 112.536 259.46 102.055L210.387 16.9596Z" fill="#158BCE"/>
<path d="M187.58 46.65C183.29 39.23 175.37 34.66 166.8 34.66H97.25C88.67 34.66 80.76 39.23 76.47 46.65L41.69 106.81C37.4 114.23 37.4 123.36 41.69 130.77L76.47 190.93C80.76 198.35 88.68 202.92 97.25 202.92H166.8C175.38 202.92 183.29 198.35 187.58 190.93L222.36 130.77C226.65 123.36 226.65 114.22 222.36 106.81L187.58 46.65Z" fill="white"/>
<path d="M148.15 159.26C145.74 155.03 143.37 150.78 140.95 146.55C137.04 139.7 133.06 132.89 129.23 125.99C127.97 123.73 126.32 122.75 123.77 122.84C119.89 122.97 115.99 122.87 112.11 122.87C94.41 122.87 76.7 122.86 59 122.89C59.41 124.78 60.1 126.63 61.1 128.36L88.38 175.54C91.74 181.36 97.96 184.94 104.68 184.94H159.23C160.39 184.94 161.53 184.83 162.64 184.62C160.31 180.41 157.91 176.24 155.52 172.07C153.08 167.8 150.6 163.54 148.15 159.26Z" fill="#D88A00"/>
<path d="M175.54 175.55L202.82 128.37C206.18 122.55 206.18 115.39 202.82 109.57L175.54 62.3901C174.18 60.0301 172.34 58.0501 170.19 56.5101C170.01 56.8101 169.84 57.1201 169.66 57.4201C168.32 59.7401 167.08 62.1201 165.75 64.4401C163.57 68.2701 161.35 72.0801 159.16 75.9001C157.62 78.5901 156.13 81.3001 154.6 83.9801C151.75 88.9801 148.9 93.9801 146.04 98.9701C144.03 102.49 142.03 106.01 140.01 109.53C138.72 111.78 137.37 114 136.12 116.27C135.38 117.61 135.39 119.06 136.15 120.39C139.58 126.41 143.07 132.4 146.51 138.42C149.64 143.89 152.72 149.39 155.84 154.87C159.38 161.07 162.95 167.26 166.5 173.45C167.93 175.95 169.3 178.49 170.81 180.94C172.7 179.5 174.31 177.67 175.54 175.55Z" fill="#FFAE1F"/>
<path d="M92.09 113.99C102.87 113.99 113.64 113.99 124.42 114C126.1 114 127.51 113.49 128.4 111.95C130.74 107.93 133.1 103.91 135.41 99.8701C138.5 94.4501 141.54 89.0001 144.63 83.5801C147.74 78.1001 150.87 72.6401 154.01 67.1801C155.5 64.5901 157.03 62.0301 158.51 59.4501C159.69 57.3801 160.87 55.3001 162.01 53.2101C161.1 53.0701 160.18 53.0001 159.24 53.0001H104.69C97.96 53.0001 91.75 56.5901 88.39 62.4001L61.11 109.58C60.3 110.99 59.68 112.47 59.26 114C69.55 114 79.84 114 90.14 114C90.79 113.99 91.44 113.99 92.09 113.99Z" fill="#FFC522"/>
</svg>
